<?xml version="1.0" encoding="UTF-8"?>
<svg width="172px" height="257px" viewBox="0 0 172 257" version="1.1" xmlns="http://www.w3.org/2000/svg" xmlns:xlink="http://www.w3.org/1999/xlink">
    <g id="Page-1" stroke="none" stroke-width="1" fill="none" fill-rule="evenodd">
        <g id="e-logo">
            <ellipse id="Oval-2-Copy-3" fill="#000000" cx="85.5397149" cy="128.309572" rx="85.5397149" ry="128.309572"></ellipse>
            <ellipse id="Oval-2-Copy-5" fill="#FFFFFF" cx="84.5213849" cy="128.309572" rx="72.3014257" ry="112.016293"></ellipse>
            <ellipse id="Oval-2-Copy-4" fill="#900000" cx="85.5397149" cy="129.327902" rx="59.0631365" ry="94.7046843"></ellipse>
            <path d="M96.6545588,79.7347404 C96.1329755,72.1610276 94.8763227,66.4062822 93.0223829,62.5557917 C91.2823361,58.9418484 90.008367,58.0366599 87.9348269,58.0366599 C84.1849259,58.0366599 80.0771354,62.1074433 75.8740627,73.3839799 L72.0412605,83.6670939 C79.538847,81.7500971 87.7456396,80.4454828 96.6545588,79.7347404 Z M34.0397826,69.1131825 L39.3907253,57.7626978 C44.8042005,46.2795687 51.49547,37.2590597 59.581569,30.842916 C68.1612771,24.0351041 77.650656,20.4643585 87.7230143,20.4643585 C102.641107,20.4643585 114.725976,27.8408374 122.718253,41.418079 C129.862382,53.5544899 133.197556,70.2705446 133.197556,91.6741344 C133.197556,112.529015 130.017488,131.341221 123.594179,148.057305 C116.956593,165.331021 107.619337,178.658206 95.4786151,187.763747 C83.3297447,196.8754 70.9625052,201.645621 58.4928717,201.645621 C45.5582749,201.645621 34.4828335,197.03503 26.1120494,187.974887 C17.8942751,179.080355 13.8655804,167.420839 13.8655804,153.629328 C13.8655804,132.131006 22.166007,114.009132 38.3810591,100.171156 C46.5885875,93.1668252 56.8127854,87.9664243 69.0206042,84.4835435 L34.0397826,69.1131825 Z M108.692464,104.488798 C82.4275673,105.75968 65.1650108,111.972789 56.904277,123.12831 C48.6435432,134.28383 44.5132383,144.591942 44.5132383,154.052953 C44.5132383,160.266155 46.2077224,165.279003 49.5967413,169.09165 C52.9857603,172.904296 57.574988,174.810591 63.3645621,174.810591 C69.1541362,174.810591 75.4025462,172.339468 82.1099796,167.397149 C88.817413,162.454829 94.500995,154.723746 99.1608961,144.203666 C103.820797,133.683586 106.997955,120.445429 108.692464,104.488798 Z M108.101867,92.2831194 L122.350529,91.593668 L120.844097,105.779237 C119.024498,122.913797 115.557369,137.360167 110.333812,149.152743 C104.871867,161.483497 97.9409855,170.911218 89.3588477,177.234898 C80.7104642,183.607391 72.0547633,187.03055 63.3645621,187.03055 C54.2021617,187.03055 46.2602931,183.73162 40.4634299,177.210149 C34.9684294,171.028273 32.293279,163.114287 32.293279,154.052953 C32.293279,141.663133 37.3867525,128.951217 47.0837399,115.85614 C58.0086406,101.102855 78.5390776,93.7135769 108.101867,92.2831194 Z" id="∂-copy-3" fill="#FFFFFF" fill-rule="nonzero" transform="translate(73.531568, 111.054990) rotate(-180.000000) translate(-73.531568, -111.054990) "></path>
            <ellipse id="Oval-3" fill="#FFFFFF" transform="translate(70.828809, 82.096276) rotate(26.000000) translate(-70.828809, -82.096276) " cx="70.8288095" cy="82.0962758" rx="19.3485426" ry="30.019182"></ellipse>
            <circle id="Oval-4" fill="#FFFFFF" cx="63.1364562" cy="152.749491" r="18.3299389"></circle>
            <path d="M64.4236253,67.0794297 L50.4439919,60.9368635 C55.103893,51.0522248 60.6815697,43.5329518 67.1771894,38.3788187 C73.6728091,33.2246857 80.5213489,30.6476578 87.7230143,30.6476578 C98.1724895,30.6476578 106.327194,35.6252048 112.187373,45.5804481 C118.047551,55.5356913 120.977597,70.22122 120.977597,89.6374745 C120.977597,109.053729 118.047551,126.386889 112.187373,141.637475 C106.327194,156.88806 98.3136965,168.325827 88.1466395,175.95112 C77.9795826,183.576413 68.0950921,187.389002 58.4928717,187.389002 C48.8906512,187.389002 41.0889642,184.141241 35.0875764,177.645621 C29.0861886,171.150001 26.0855397,162.465771 26.0855397,151.592668 C26.0855397,133.659109 32.8281743,118.938279 46.3136456,107.429735 C59.799117,95.9211916 80.7330556,89.8845921 109.11609,89.3197556 C109.398508,74.2103793 107.704024,62.8432153 104.032587,55.2179226 C100.361149,47.5926299 94.9952831,43.7800407 87.9348269,43.7800407 C78.0501882,43.7800407 70.2131993,51.5464261 64.4236253,67.0794297 Z M108.692464,102.452138 C82.4275673,103.723021 65.1650108,109.936129 56.904277,121.09165 C48.6435432,132.247171 44.5132383,142.555282 44.5132383,152.016293 C44.5132383,158.229495 46.2077224,163.242343 49.5967413,167.05499 C52.9857603,170.867636 57.574988,172.773931 63.3645621,172.773931 C69.1541362,172.773931 75.4025462,170.302808 82.1099796,165.360489 C88.817413,160.418169 94.500995,152.687086 99.1608961,142.167006 C103.820797,131.646926 106.997955,118.40877 108.692464,102.452138 Z" id="∂-copy-2" fill="#000000" transform="translate(73.531568, 109.018330) rotate(-180.000000) translate(-73.531568, -109.018330) "></path>
        </g>
    </g>
</svg>